<svg xmlns="http://www.w3.org/2000/svg" width="108" height="18"><path d="M.01 2H3.8v15.74h2.13V2H9.7V.24H.01V2zm13.83 7.5h5.2V7.73h-5.2V2h5.91V.24h-8.04v17.5h8.04V16h-5.9V9.5zm12.71-2.26l-2.6-7h-2.12l3.19 8.5-3.55 9h2.13l2.95-7.5 2.96 7.5h2.13l-3.55-9 3.2-8.5h-2.13zm14.25-7V8h-4.97V.24H33.7v17.5h2.13v-8h4.96v8h2.13V.24H40.8zm7.67.18a3.78 3.78 0 00-1.6 1.45 7.92 7.92 0 00-1 2.76 23.07 23.07 0 00-.34 4.36 23.06 23.06 0 00.34 4.36 7.92 7.92 0 001 2.77 3.77 3.77 0 001.6 1.45 5.6 5.6 0 004.28 0 3.77 3.77 0 001.6-1.45 7.96 7.96 0 001-2.77A23.14 23.14 0 0055.69 9a23.15 23.15 0 00-.34-4.36 7.96 7.96 0 00-1-2.76 3.78 3.78 0 00-1.6-1.45 5.6 5.6 0 00-4.28 0zm1.02 15.75a2.61 2.61 0 01-.94-1.18 9.12 9.12 0 01-.65-2.3 22.67 22.67 0 01-.25-3.7 22.67 22.67 0 01.25-3.7 9.13 9.13 0 01.65-2.3 2.61 2.61 0 01.94-1.17 2.06 2.06 0 012.23 0 2.63 2.63 0 01.94 1.17 9.17 9.17 0 01.65 2.3 22.67 22.67 0 01.25 3.7 22.67 22.67 0 01-.25 3.7 9.16 9.16 0 01-.65 2.3 2.62 2.62 0 01-.94 1.18 2.06 2.06 0 01-2.23 0zm16.87-.68l3.43-10.75h.12l.71 13h2.13L71.8.24h-2.6l-3.85 12h-.1L61.4.24h-2.6l-.94 17.5h2.12l.71-13h.12l3.43 10.75h2.13zm16.25-2.25l1.07 4.5h2.12L81.78.24h-3.07l-4.02 17.5h2.13l1.07-4.5h4.72zm-.35-1.75h-4.02l1.96-8.75h.1zm7.78-.62V1.62h1.66a4.04 4.04 0 011.38.21 2.02 2.02 0 01.96.74 3.63 3.63 0 01.55 1.42 11.95 11.95 0 01.18 2.25 11.94 11.94 0 01-.18 2.25 3.63 3.63 0 01-.55 1.43 2.02 2.02 0 01-.96.74 4.02 4.02 0 01-1.38.2h-1.66zm0 1.5a10.75 10.75 0 001.14.17 11.42 11.42 0 001.23.08 5.72 5.72 0 002-.32 3.05 3.05 0 001.4-1.05 5.06 5.06 0 00.82-1.96 14.4 14.4 0 00.28-3.05 13.13 13.13 0 00-.29-2.97 4.54 4.54 0 00-.9-1.93A3.39 3.39 0 0094.12.3 8.12 8.12 0 0091.7 0a16.12 16.12 0 00-1.97.1 10.64 10.64 0 00-1.81.4v17.24h2.13v-5.37zM98.3 1.99h3.78v15.75h2.13V2h3.78V.24H98.3V2z" fill="#fff" fill-rule="evenodd"/></svg>